<svg width="35" height="35" viewBox="0 0 35 35" fill="none" xmlns="http://www.w3.org/2000/svg">
<g clip-path="url(#clip0_38_3295)">
<path d="M34.8884 17.4371C34.8884 27.0673 27.0814 34.8741 17.4512 34.8741C7.82101 34.8741 0.0141602 27.0673 0.0141602 17.4371C0.0141602 7.80683 7.82101 0 17.4512 0C27.0814 0 34.8884 7.80683 34.8884 17.4371Z" fill="#22253B"/>
<path d="M19.2198 12.913H21.2457V9.97314H18.8641V9.98375C15.9784 10.0842 15.3869 11.6776 15.3348 13.3512H15.3288V14.8192H13.3638V17.6982H15.3288V25.4156H18.2903V17.6982H20.7163L21.1848 14.8192H18.2912V13.9322C18.2912 13.3667 18.6744 12.913 19.2198 12.913Z" fill="white"/>
</g>
<defs>
<clipPath id="clip0_38_3295">
<rect width="35" height="35" fill="white"/>
</clipPath>
</defs>
</svg>
