<svg width="35" height="35" viewBox="0 0 35 35" fill="none" xmlns="http://www.w3.org/2000/svg">
<g clip-path="url(#clip0_38_3293)">
<path d="M34.8884 17.4371C34.8884 27.0673 27.0814 34.8741 17.4512 34.8741C7.82101 34.8741 0.0141602 27.0673 0.0141602 17.4371C0.0141602 7.80683 7.82101 0 17.4512 0C27.0814 0 34.8884 7.80683 34.8884 17.4371Z" fill="#22253B"/>
<path d="M21.4009 8.68652H13.2122C10.5471 8.68652 8.37891 10.8547 8.37891 13.5198V21.7086C8.37891 24.3736 10.5471 26.5418 13.2122 26.5418H21.4011C24.0659 26.5418 26.2341 24.3736 26.2341 21.7086V13.5198C26.2341 10.8547 24.0659 8.68652 21.4009 8.68652ZM17.3065 22.4963C14.6145 22.4963 12.4244 20.3062 12.4244 17.6141C12.4244 14.9221 14.6145 12.732 17.3065 12.732C19.9986 12.732 22.1888 14.9221 22.1888 17.6141C22.1888 20.3062 19.9986 22.4963 17.3065 22.4963ZM22.3054 13.8834C21.5099 13.8834 20.8628 13.2363 20.8628 12.4407C20.8628 11.6452 21.5099 10.998 22.3054 10.998C23.101 10.998 23.7481 11.6452 23.7481 12.4407C23.7481 13.2363 23.101 13.8834 22.3054 13.8834Z" fill="white"/>
<path d="M17.3066 13.7788C15.1918 13.7788 13.4712 15.4993 13.4712 17.6142C13.4712 19.7289 15.1918 21.4496 17.3066 21.4496C19.4215 21.4496 21.1419 19.7289 21.1419 17.6142C21.1419 15.4993 19.4215 13.7788 17.3066 13.7788Z" fill="white"/>
<path d="M22.3055 12.0449C22.0873 12.0449 21.9097 12.2226 21.9097 12.4408C21.9097 12.659 22.0873 12.8367 22.3055 12.8367C22.5238 12.8367 22.7016 12.6592 22.7016 12.4408C22.7016 12.2224 22.5238 12.0449 22.3055 12.0449Z" fill="white"/>
</g>
<defs>
<clipPath id="clip0_38_3293">
<rect width="35" height="35" fill="white"/>
</clipPath>
</defs>
</svg>
