<svg width="35" height="35" viewBox="0 0 35 35" fill="none" xmlns="http://www.w3.org/2000/svg">
<g clip-path="url(#clip0_38_3294)">
<path d="M34.8741 17.4371C34.8741 27.0673 27.0673 34.8741 17.4371 34.8741C7.80683 34.8741 0 27.0673 0 17.4371C0 7.80683 7.80683 0 17.4371 0C27.0673 0 34.8741 7.80683 34.8741 17.4371Z" fill="#22253B"/>
<path fill-rule="evenodd" clip-rule="evenodd" d="M16.8496 22.9579H17.9649C17.9649 22.9579 18.3018 22.9211 18.4738 22.736C18.6322 22.5663 18.6271 22.2475 18.6271 22.2475C18.6271 22.2475 18.6053 20.7549 19.2999 20.5351C19.9846 20.3186 20.8639 21.9777 21.7959 22.6156C22.5005 23.0983 23.036 22.9925 23.036 22.9925L25.528 22.9579C25.528 22.9579 26.8314 22.8779 26.2133 21.8556C26.1628 21.7719 25.8535 21.0995 24.3607 19.7175C22.7982 18.2712 23.0074 18.5051 24.8896 16.0032C26.0359 14.4795 26.4941 13.5493 26.3509 13.1509C26.2143 12.7714 25.3713 12.8717 25.3713 12.8717L22.5657 12.8891C22.5657 12.8891 22.3577 12.8609 22.2034 12.9528C22.0527 13.043 21.9556 13.2532 21.9556 13.2532C21.9556 13.2532 21.5116 14.4323 20.9193 15.435C19.67 17.5509 19.1705 17.6626 18.9663 17.5312C18.4913 17.225 18.6099 16.3011 18.6099 15.6447C18.6099 13.5943 18.9217 12.7393 18.0027 12.518C17.6977 12.4445 17.4733 12.396 16.6933 12.3882C15.6922 12.3778 14.8448 12.3912 14.365 12.6256C14.0459 12.7815 13.7997 13.1289 13.9496 13.1489C14.1351 13.1736 14.555 13.2618 14.7777 13.5642C15.0652 13.9543 15.0551 14.8305 15.0551 14.8305C15.0551 14.8305 15.2203 17.2442 14.6693 17.5441C14.2911 17.7497 13.7723 17.3298 12.6585 15.4103C12.0878 14.427 11.6569 13.3401 11.6569 13.3401C11.6569 13.3401 11.5738 13.137 11.4256 13.0284C11.2457 12.8967 10.9944 12.8548 10.9944 12.8548L8.32829 12.8722C8.32829 12.8722 7.92805 12.8833 7.78113 13.0569C7.65042 13.2113 7.77075 13.5306 7.77075 13.5306C7.77075 13.5306 9.85805 18.401 12.2215 20.8555C14.3886 23.1058 16.8496 22.9579 16.8496 22.9579Z" fill="white"/>
</g>
<defs>
<clipPath id="clip0_38_3294">
<rect width="35" height="35" fill="white"/>
</clipPath>
</defs>
</svg>
