<svg width="35" height="35" viewBox="0 0 35 35" fill="none" xmlns="http://www.w3.org/2000/svg">
<g clip-path="url(#clip0_38_3296)">
<path d="M34.94 17.4632C34.94 27.1078 27.1214 34.9262 17.4768 34.9262C7.8322 34.9262 0.0136719 27.1078 0.0136719 17.4632C0.0136719 7.81852 7.8322 0 17.4768 0C27.1214 0 34.94 7.81852 34.94 17.4632Z" fill="#22253B"/>
<path d="M26.473 11.6698C25.7635 10.8264 24.4537 10.4824 21.9521 10.4824H12.8716C10.3129 10.4824 8.98083 10.8486 8.27405 11.7465C7.58496 12.6219 7.58496 13.9118 7.58496 15.697V19.0996C7.58496 22.5583 8.40256 24.3142 12.8716 24.3142H21.9521C24.1215 24.3142 25.3235 24.0107 26.1013 23.2664C26.8987 22.5031 27.2391 21.2569 27.2391 19.0996V15.697C27.2391 13.8144 27.1857 12.5169 26.473 11.6698ZM20.2029 17.8681L16.0795 20.0231C15.9873 20.0713 15.8865 20.0952 15.7858 20.0952C15.6718 20.0952 15.5581 20.0646 15.4573 20.0035C15.2677 19.8886 15.1518 19.683 15.1518 19.4612V15.165C15.1518 14.9436 15.2673 14.7382 15.4567 14.6232C15.646 14.5081 15.8816 14.5003 16.078 14.6024L20.2015 16.7435C20.4113 16.8524 20.543 17.069 20.5434 17.3053C20.5436 17.5418 20.4125 17.7587 20.2029 17.8681Z" fill="white"/>
</g>
<defs>
<clipPath id="clip0_38_3296">
<rect width="35" height="35" fill="white"/>
</clipPath>
</defs>
</svg>
