<svg width="35" height="35" viewBox="0 0 35 35" fill="none" xmlns="http://www.w3.org/2000/svg">
<g clip-path="url(#clip0_88_801)">
<path d="M34.9403 17.4632C34.9403 27.1078 27.1217 34.9262 17.4771 34.9262C7.83244 34.9262 0.013916 27.1078 0.013916 17.4632C0.013916 7.81852 7.83244 0 17.4771 0C27.1217 0 34.9403 7.81852 34.9403 17.4632Z" fill="#F15525"/>
<path d="M26.4733 11.6699C25.7638 10.8265 24.4539 10.4825 21.9523 10.4825H12.8719C10.3131 10.4825 8.98107 10.8487 8.27429 11.7466C7.5852 12.622 7.58521 13.9119 7.58521 15.6971V19.0998C7.58521 22.5584 8.4028 24.3143 12.8719 24.3143H21.9523C24.1217 24.3143 25.3238 24.0108 26.1015 23.2665C26.899 22.5032 27.2393 21.2571 27.2393 19.0998V15.6971C27.2393 13.8145 27.1859 12.517 26.4733 11.6699ZM20.2031 17.8682L16.0797 20.0232C15.9876 20.0714 15.8867 20.0953 15.7861 20.0953C15.6721 20.0953 15.5583 20.0647 15.4576 20.0036C15.2679 19.8887 15.1521 19.6831 15.1521 19.4613V15.1651C15.1521 14.9437 15.2676 14.7383 15.4569 14.6233C15.6463 14.5083 15.8818 14.5004 16.0783 14.6025L20.2017 16.7436C20.4115 16.8525 20.5432 17.0691 20.5436 17.3054C20.5438 17.5419 20.4127 17.7588 20.2031 17.8682Z" fill="white"/>
</g>
<defs>
<clipPath id="clip0_88_801">
<rect width="35" height="35" fill="white"/>
</clipPath>
</defs>
</svg>
