<svg width="15" height="15" viewBox="0 0 15 15" fill="none" xmlns="http://www.w3.org/2000/svg">
<path d="M0.292893 13.2929C-0.0976311 13.6834 -0.0976311 14.3166 0.292893 14.7071C0.683418 15.0976 1.31658 15.0976 1.70711 14.7071L0.292893 13.2929ZM15 0.999969C15 0.447684 14.5523 -3.1092e-05 14 -3.13449e-05L5 -3.05441e-05C4.44772 -3.08813e-05 4 0.447685 4 0.999969C4 1.55225 4.44772 1.99997 5 1.99997L13 1.99997L13 9.99997C13 10.5523 13.4477 11 14 11C14.5523 11 15 10.5523 15 9.99997L15 0.999969ZM1.70711 14.7071L14.7071 1.70708L13.2929 0.292862L0.292893 13.2929L1.70711 14.7071Z" fill="white"/>
</svg>
